# xmcd CD database file
#
# Track frame offsets:
#	150
#	57609
#	86671
#	105977
#	169099
#	217888
#	239281
#	267953
#
# Disc length: 3659 seconds
#
# Revision: 0
# Processed by: cddbd v1.5.1PL0 Copyright (c) Steve Scherf et al.
# Submitted via: CDex 1.51
#
DISCID=670e4908
DTITLE=Petter Wettre - Dave Liebman - Tour de Force
DYEAR=2000
DGENRE=Jazz
TTITLE0=Yeah, that`s right
TTITLE1=Vibebuster
TTITLE2=Vonetta
TTITLE3=Area 51
TTITLE4=Renewal
TTITLE5=Go baby
TTITLE6=The Trio
TTITLE7=Sweet on you
EXTD=YEAR: 2000
EXTT0=
EXTT1=
EXTT2=
EXTT3=
EXTT4=
EXTT5=
EXTT6=
EXTT7=
PLAYORDER=
